# xmcd CD database file
#
# Track frame offsets:
#	150
#	14223
#	28060
#	42510
#	55840
#	69535
#	83138
#	98370
#	113730
#	127705
#	142755
#	156948
#	171618
#	185675
#	199850
#	214755
#
# Disc length: 3053 seconds
#
# Revision: 7
# Processed by: cddbd v1.5.2PL0 Copyright (c) Steve Scherf et al.
# Submitted via: CDex 1.70beta2
#
DISCID=e00beb10
DTITLE=Blind Willie Johnson, 1897-1945 - The Complete Blind Willie Johnson -Disc 02 of 02
DYEAR=1993
DGENRE=Gospel Prewar Blues 1921-1930
TTITLE0=You're Gonna Need Somebody on Your Bond - Blind Willie Johnson
TTITLE1=When the War Was On - Blind Willie Johnson
TTITLE2=Praise God I'm Satisfied - Blind Willie Johnson, Traditional
TTITLE3=Take Your Burden to the Lord and Leave It There - Charles Albert Tindley
TTITLE4=Take Your Stand - Blind Willie Johnson, Traditional
TTITLE5=God Moves on the Water - Blind Willie Johnson, Billy Moore
TTITLE6=Can't Nobody Hide from God - Blind Willie Johnson
TTITLE7=If It Had Not Been for Jesus - Blind Willie Johnson, Traditional
TTITLE8=Go To Me With That Land
TTITLE9=The Rain Don't Fall on Me - Blind Willie Johnson, Traditional
TTITLE10=Trouble Will Soon Be Over - Blind Willie Johnson, Traditional
TTITLE11=The Soul of a Man - Blind Willie Johnson
TTITLE12=Everybody Ought to Treat a Stranger Right - Blind Willie Johnson
TTITLE13=Church, I'm Fully Saved Today - Blind Willie Johnson
TTITLE14=John the Revelator - Traditional
TTITLE15=You're Gonna Need Somebody on Your Bond - Blind Willie Johnson
EXTD=YEAR: 1993
EXTT0=
EXTT1=
EXTT2=
EXTT3=
EXTT4=
EXTT5=
EXTT6=
EXTT7=
EXTT8=
EXTT9=
EXTT10=
EXTT11=
EXTT12=
EXTT13=
EXTT14=
EXTT15=
PLAYORDER=
